<?xml version="1.0" encoding="UTF-8" standalone="no"?>
<!-- Created with Inkscape (http://www.inkscape.org/) -->

<svg
   xmlns:dc="http://purl.org/dc/elements/1.1/"
   xmlns:cc="http://creativecommons.org/ns#"
   xmlns:rdf="http://www.w3.org/1999/02/22-rdf-syntax-ns#"
   xmlns:svg="http://www.w3.org/2000/svg"
   xmlns="http://www.w3.org/2000/svg"
   xmlns:sodipodi="http://sodipodi.sourceforge.net/DTD/sodipodi-0.dtd"
   xmlns:inkscape="http://www.inkscape.org/namespaces/inkscape"
   width="1920"
   height="1080"
   viewBox="0 0 508 285.74999"
   version="1.1"
   id="svg8"
   inkscape:version="0.92.4 5da689c313, 2019-01-14"
   sodipodi:docname="bg.svg">
  <defs
     id="defs2" />
  <sodipodi:namedview
     id="base"
     pagecolor="#ffffff"
     bordercolor="#666666"
     borderopacity="1.0"
     inkscape:pageopacity="0.0"
     inkscape:pageshadow="2"
     inkscape:zoom="0.75124069"
     inkscape:cx="1021.8489"
     inkscape:cy="534.28571"
     inkscape:document-units="px"
     inkscape:current-layer="svg8"
     showgrid="false"
     units="px"
     inkscape:window-width="1920"
     inkscape:window-height="1058"
     inkscape:window-x="0"
     inkscape:window-y="22"
     inkscape:window-maximized="0" />
  <metadata
     id="metadata5">
    <rdf:RDF>
      <cc:Work
         rdf:about="">
        <dc:format>image/svg+xml</dc:format>
        <dc:type
           rdf:resource="http://purl.org/dc/dcmitype/StillImage" />
        <dc:title></dc:title>
      </cc:Work>
    </rdf:RDF>
  </metadata>
  <g
     inkscape:groupmode="layer"
     id="layer2"
     inkscape:label="Background"
     sodipodi:insensitive="true">
    <rect
       style="opacity:1;fill:#2e3440;fill-opacity:1;stroke:#000000;stroke-width:0.421;stroke-miterlimit:4;stroke-dasharray:none;stroke-dashoffset:0;stroke-opacity:1"
       id="rect29-3"
       width="517.02246"
       height="290.561"
       x="-4.3480291"
       y="-0.38890061" />
  </g>
  <g
     inkscape:groupmode="layer"
     id="layer3"
     inkscape:label="l1" />
  <path
     style="fill:none;stroke:#3b4252;stroke-width:1.58749997;stroke-linecap:butt;stroke-linejoin:miter;stroke-opacity:1;stroke-miterlimit:4;stroke-dasharray:none"
     d="M -7.7482935,21.955828 H 55.646833 c 0,0 61.986347,1.408781 85.231227,4.930733 23.24488,3.521951 89.10537,2.817561 100.37562,-2.113172 11.27024,-4.930732 37.68488,-20.7795137 79.5961,-12.679025 41.91122,8.100488 40.50244,32.401953 70.79123,22.540491 30.28878,-9.861466 60.92975,-44.0243954 77.13075,-19.370735 16.20096,24.65366 -6.33952,58.81659 20.0751,41.911224 26.41465,-16.905367 32.40196,-29.936588 32.40196,-29.936588"
     id="path861"
     inkscape:connector-curvature="0" />
  <path
     style="fill:none;stroke:#3b4252;stroke-width:1.58749997;stroke-linecap:butt;stroke-linejoin:miter;stroke-opacity:1;stroke-miterlimit:4;stroke-dasharray:none"
     d="M -7.7482935,44.496317 H 78.187324 c 0,0 42.615616,-0.704389 68.678056,4.578538 26.06244,5.282928 45.28527,26.231644 60.22537,10.91805 14.08781,-14.440002 46.35022,-0.420994 55.64683,-15.496588 13.03121,-21.131708 46.84198,-22.540489 58.4644,5.635124 13.30207,32.247493 30.28877,43.672197 68.32585,27.119025 38.03709,-16.553172 53.18146,-47.898539 59.87317,-25.005855 6.69171,22.892684 -41.91121,78.187329 13.03124,47.546347 54.94244,-30.64098 58.81658,-39.798053 58.81658,-39.798053"
     id="path863"
     inkscape:connector-curvature="0"
     sodipodi:nodetypes="ccsssssssc" />
  <path
     style="fill:none;stroke:#3b4252;stroke-width:1.58749998;stroke-linecap:butt;stroke-linejoin:miter;stroke-miterlimit:4;stroke-dasharray:none;stroke-opacity:1"
     d="M -8.7572722,68.959815 H 77.178345 c 0,0 42.801435,-1.550137 68.678055,4.578538 13.38341,3.169757 26.97112,3.338955 46.48976,27.119027 12.7992,15.59361 11.0937,-36.328084 37.68487,-25.358052 17.95701,7.408056 91.69763,-64.406544 52.82927,10.213661 -11.34614,21.782541 2.46538,51.772681 58.46441,29.936581 38.64851,-15.07048 74.31317,-39.798045 81.00488,-16.905362 6.69171,22.892682 20.77952,25.005862 75.72197,-5.635124 54.94245,-30.640975 32.04975,5.635124 32.04975,5.635124"
     id="path863-6"
     inkscape:connector-curvature="0"
     sodipodi:nodetypes="ccsssssssc" />
  <path
     style="fill:none;stroke:#3b4252;stroke-width:1.58749998;stroke-linecap:butt;stroke-linejoin:miter;stroke-miterlimit:4;stroke-dasharray:none;stroke-opacity:1"
     d="M -8.3993401,94.325612 H 77.53627 c 0,0 44.21022,1.267424 70.08684,-2.81756 13.58542,-2.144647 18.16624,7.565292 37.68488,31.345368 12.7992,15.59361 43.93731,-4.85243 45.08097,-20.77952 0.84003,-11.698573 36.22976,-29.80085 36.27611,21.13172 0.0209,23.02546 19.01853,39.44585 75.01757,17.60975 38.6485,-15.07048 33.88941,-55.648466 83.11805,-20.07513 29.84803,21.56862 60.37658,-17.37785 86.99221,-15.49657 125.10913,8.8431 27.11901,21.1317 27.11901,21.1317"
     id="path863-6-7"
     inkscape:connector-curvature="0"
     sodipodi:nodetypes="ccsssssssc" />
  <path
     style="fill:none;stroke:#3b4252;stroke-width:1.58749998;stroke-linecap:butt;stroke-linejoin:miter;stroke-miterlimit:4;stroke-dasharray:none;stroke-opacity:1"
     d="M -9.6766346,120.3168 H 76.258975 c 0,0 42.841535,1.01767 55.999035,-7.0439 10.45388,-6.40507 38.59356,7.2131 39.09366,41.20683 0.29676,20.17157 29.12252,6.75851 38.74146,-5.98732 26.90247,-35.64784 37.63853,-39.31012 37.68488,11.62245 0.0209,23.02546 25.00586,38.03707 81.0049,16.20097 38.6485,-15.07048 74.5564,-93.32597 70.08682,-32.75416 -5.72368,77.56765 91.2425,-43.3032 81.70927,-11.27023 -15.30985,51.44314 81.35709,9.15708 81.35709,9.15708"
     id="path863-6-7-5"
     inkscape:connector-curvature="0"
     sodipodi:nodetypes="ccsssssssc" />
  <path
     style="fill:none;stroke:#3b4252;stroke-width:1.58749998;stroke-linecap:butt;stroke-linejoin:miter;stroke-miterlimit:4;stroke-dasharray:none;stroke-opacity:1"
     d="M -6.7966143,264.96431 H 79.138996 c 0,0 63.973244,1.36987 77.130744,-6.6917 10.45388,-6.40507 48.51307,16.80681 82.41366,19.37073 47.84311,3.61839 59.42745,-17.05477 75.36976,-17.96196 50.85174,-2.89369 100.32926,26.19818 142.99123,18.66635 41.17163,-12.09931 83.84646,18.75473 83.11807,-11.27024"
     id="path863-6-7-5-3"
     inkscape:connector-curvature="0"
     sodipodi:nodetypes="ccssscc" />
  <path
     style="fill:none;stroke:#3b4252;stroke-width:1.58749998;stroke-linecap:butt;stroke-linejoin:miter;stroke-miterlimit:4;stroke-dasharray:none;stroke-opacity:1"
     d="m -10.196623,147.20593 h 85.93561 c 0,0 41.432753,2.42645 50.716103,-16.90536 5.3072,-11.0518 37.18478,-8.98788 37.68488,25.00585 0.29676,20.17157 39.90058,23.37424 44.02439,15.84878 12.64799,-23.0811 34.46877,-59.03305 34.51512,-8.10048 0.0209,23.02546 8.61339,31.5879 68.67807,33.81073 30.54802,1.13049 60.67598,33.0373 48.25073,-26.41465 -5.72368,-27.38649 25.382,40.16705 86.64,-0.70438 44.64759,-29.78893 118.68978,26.06245 118.68978,26.06245"
     id="path863-6-7-5-5"
     inkscape:connector-curvature="0"
     sodipodi:nodetypes="ccsssssssc" />
  <path
     style="fill:none;stroke:#3b4252;stroke-width:1.58749998;stroke-linecap:butt;stroke-linejoin:miter;stroke-miterlimit:4;stroke-dasharray:none;stroke-opacity:1"
     d="m -10.276558,173.19943 h 85.93561 c 0,0 27.457778,-1.10984 48.602928,2.46537 15.87305,2.68381 18.87063,-23.07568 30.28878,-1.76098 9.52619,17.78291 40.23987,24.89878 46.48976,19.01854 32.01872,-30.125 21.20412,5.20791 44.02439,5.28293 48.14153,0.15828 19.88363,17.1479 79.94832,19.37073 30.54802,1.13049 15.95856,34.05028 47.89852,-17.60977 15.40802,-24.92112 60.64672,10.57837 73.25659,-4.22633 57.38336,-67.37131 103.19319,15.84879 103.19319,15.84879"
     id="path863-6-7-5-5-6"
     inkscape:connector-curvature="0"
     sodipodi:nodetypes="ccsssssssc" />
  <path
     style="fill:none;stroke:#3b4252;stroke-width:1.58749998;stroke-linecap:butt;stroke-linejoin:miter;stroke-miterlimit:4;stroke-dasharray:none;stroke-opacity:1"
     d="M -8.9764577,201.56027 H 76.959154 c 0,0 28.866556,-0.0532 50.011706,3.52196 15.87305,2.68381 16.63828,-29.69835 33.45854,-12.32684 15.5135,16.02194 36.91981,16.30137 42.9678,10.21367 33.4275,-33.64696 11.61803,3.58903 44.37659,5.63512 46.10385,2.87963 14.60071,11.51277 74.66538,13.7356 30.54803,1.13049 29.69417,44.26394 51.42048,-1e-5 12.91001,-26.3021 17.96745,-27.18004 73.60879,1.76099 33.2871,17.3138 70.08684,-37.33268 70.08684,-37.33268"
     id="path863-6-7-5-5-6-9"
     inkscape:connector-curvature="0"
     sodipodi:nodetypes="ccsssssssc" />
  <path
     style="fill:none;stroke:#3b4252;stroke-width:1.58749998;stroke-linecap:butt;stroke-linejoin:miter;stroke-miterlimit:4;stroke-dasharray:none;stroke-opacity:1"
     d="m -8.605762,233.17522 h 85.93561 c 0,0 46.124122,10.51265 65.156102,-6.6917 11.9422,-10.79539 25.23637,-26.90779 34.51513,-4.57855 15.10366,36.3468 23.88859,17.00576 29.93658,10.91806 33.42749,-33.64697 21.1273,9.92855 62.69073,-1.05658 44.66018,-11.8036 4.03485,14.33033 64.09952,16.55316 30.54803,1.13049 40.61221,-0.11265 58.11219,-15.4966 22.00563,-19.3448 20.78501,14.02679 55.99904,22.8927 36.38514,9.16076 84.52682,-11.97463 84.52682,-11.97463"
     id="path863-6-7-5-5-6-9-1"
     inkscape:connector-curvature="0"
     sodipodi:nodetypes="ccsssssssc" />
</svg>
