<?xml version="1.0" encoding="UTF-8" standalone="no"?>
<!-- Created with Inkscape (http://www.inkscape.org/) -->

<svg
   xmlns:dc="http://purl.org/dc/elements/1.1/"
   xmlns:cc="http://creativecommons.org/ns#"
   xmlns:rdf="http://www.w3.org/1999/02/22-rdf-syntax-ns#"
   xmlns:svg="http://www.w3.org/2000/svg"
   xmlns="http://www.w3.org/2000/svg"
   xmlns:sodipodi="http://sodipodi.sourceforge.net/DTD/sodipodi-0.dtd"
   xmlns:inkscape="http://www.inkscape.org/namespaces/inkscape"
   version="1.1"
   id="svg2"
   xml:space="preserve"
   width="186.15034"
   height="186.15034"
   viewBox="0 0 186.15034 186.15034"
   sodipodi:docname="github.svg"
   inkscape:version="0.92.4 5da689c313, 2019-01-14"><metadata
     id="metadata8"><rdf:RDF><cc:Work
         rdf:about=""><dc:format>image/svg+xml</dc:format><dc:type
           rdf:resource="http://purl.org/dc/dcmitype/StillImage" /><dc:title></dc:title></cc:Work></rdf:RDF></metadata><defs
     id="defs6" /><sodipodi:namedview
     pagecolor="#ffffff"
     bordercolor="#666666"
     borderopacity="1"
     objecttolerance="10"
     gridtolerance="10"
     guidetolerance="10"
     inkscape:pageopacity="0"
     inkscape:pageshadow="2"
     inkscape:window-width="1920"
     inkscape:window-height="1058"
     id="namedview4"
     showgrid="false"
     fit-margin-top="0"
     fit-margin-left="0"
     fit-margin-right="0"
     fit-margin-bottom="0"
     inkscape:zoom="4.005133"
     inkscape:cx="114.88565"
     inkscape:cy="92.568146"
     inkscape:window-x="0"
     inkscape:window-y="22"
     inkscape:window-maximized="0"
     inkscape:current-layer="g10" /><g
     id="g10"
     inkscape:groupmode="layer"
     inkscape:label="ink_ext_XXXXXX"
     transform="matrix(1.3333333,0,0,-1.3333333,-246.36425,453.73735)"><path
       style="opacity:1;fill:#8fbcbb;fill-opacity:1;stroke:#8fbcbb;stroke-width:2.24711657;stroke-miterlimit:4;stroke-dasharray:none;stroke-dashoffset:0;stroke-opacity:1"
       d="m 232.68647,214.85706 c -33.46008,13.20139 -48.22392,51.5594 -32.13883,83.5001 3.34748,6.64722 9.56417,14.39483 15.33204,19.10772 20.78015,16.97931 49.66874,18.42734 71.76176,3.59702 13.75236,-9.2315 23.08923,-23.57343 25.84647,-39.70152 1.01507,-5.93754 1.02389,-14.60767 0.0208,-20.47494 -1.23704,-7.23592 -4.13315,-14.99627 -7.87282,-21.09584 -3.84822,-6.27664 -10.62321,-13.51175 -16.75002,-17.8876 -5.83474,-4.16725 -15.16247,-8.43345 -17.37608,-7.94727 -1.99645,0.4385 -2.01376,0.5391 -2.21536,12.87687 l -0.18724,11.45992 -1.05157,2.24601 c -0.57836,1.23531 -1.37404,2.58927 -1.76818,3.00881 -0.71587,0.76202 -0.71351,0.76327 2.34734,1.24489 15.56292,2.44882 23.43426,11.26418 24.12625,27.01978 0.31083,7.07706 -1.04861,12.07896 -4.59642,16.91204 -1.28097,1.74502 -1.33039,1.92044 -0.96313,3.41838 1.03629,4.22677 0.85387,8.4645 -0.54959,12.76797 l -0.59552,1.82602 -2.48228,-0.18505 c -3.0574,-0.22792 -7.48044,-1.89395 -11.29099,-4.25301 l -2.80139,-1.73429 -4.30698,0.7812 c -8.28577,1.50289 -16.25161,1.40731 -23.33357,-0.27996 l -2.75716,-0.65689 -1.28001,0.87879 c -2.23149,1.53204 -7.56805,4.13982 -9.78204,4.78012 -1.17438,0.33963 -2.94398,0.56581 -3.93246,0.50262 l -1.79723,-0.1149 -0.70492,-2.05985 c -0.96211,-2.81142 -1.21857,-9.22247 -0.47862,-11.96509 l 0.55048,-2.04032 -1.23155,-1.51761 c -1.42026,-1.75017 -3.28676,-5.33554 -3.90956,-7.50993 -1.93596,-6.75896 -0.87873,-16.87479 2.45891,-23.52768 1.86017,-3.70786 6.04933,-7.82414 9.86935,-9.69765 3.27254,-1.605 8.32588,-3.13578 11.55936,-3.5016 l 2.26949,-0.25677 -1.07857,-1.56764 c -0.90654,-1.31761 -1.46509,-2.69644 -2.46694,-6.08978 -0.21196,-0.71793 -3.83898,-1.61202 -6.5394,-1.61202 -4.77656,0 -7.42493,1.65909 -11.18189,7.005 -0.90654,1.28995 -2.48921,2.91222 -3.55794,3.64696 -4.84033,3.32774 -10.89469,2.06452 -6.52525,-1.36146 3.26268,-2.55819 5.13759,-4.84307 6.85954,-8.35947 1.93667,-3.95489 3.93374,-6.08206 7.04909,-7.50831 2.77032,-1.2683 6.76056,-1.76037 10.48642,-1.29319 1.66716,0.20904 3.07776,0.38008 3.13466,0.38008 0.0569,0 0.10345,-2.76858 0.10345,-6.15239 v -6.15239 l -0.9868,-0.77622 c -1.28643,-1.0119 -2.02134,-0.96735 -5.28512,0.32034 z"
       id="path1001"
       inkscape:connector-curvature="0" /><path
       style="opacity:1;fill:#8fbcbb;fill-opacity:1;stroke:#8fbcbb;stroke-width:0.39723781;stroke-miterlimit:4;stroke-dasharray:none;stroke-dashoffset:0;stroke-opacity:1"
       d="m 215.9595,244.54993 c -0.503,0.10918 -0.82758,0.41889 -0.82758,0.78968 0,0.14214 0.0499,0.23209 0.17362,0.31318 0.17041,0.11166 0.18405,0.10833 0.74106,-0.18054 0.6778,-0.35153 0.7572,-0.44958 0.56864,-0.70214 -0.15581,-0.20868 -0.37289,-0.28156 -0.65574,-0.22018 z"
       id="path1003"
       inkscape:connector-curvature="0" /><path
       style="opacity:1;fill:#8fbcbb;fill-opacity:1;stroke:#8fbcbb;stroke-width:0.39723781;stroke-miterlimit:4;stroke-dasharray:none;stroke-dashoffset:0;stroke-opacity:1"
       d="m 218.34292,242.04403 c -0.23457,0.12942 -0.50536,0.41304 -0.63501,0.6651 -0.17466,0.33954 -0.16232,0.6182 0.0361,0.81667 0.22177,0.22178 0.52752,0.2123 0.90657,-0.0281 0.79634,-0.50503 0.86453,-1.53432 0.10128,-1.52876 -0.15212,7.5e-4 -0.33616,0.0349 -0.40899,0.0751 z"
       id="path1005"
       inkscape:connector-curvature="0" /><path
       style="opacity:1;fill:#8fbcbb;fill-opacity:1;stroke:#8fbcbb;stroke-width:0.39723781;stroke-miterlimit:4;stroke-dasharray:none;stroke-dashoffset:0;stroke-opacity:1"
       d="m 220.61913,238.71991 c -0.47586,0.3152 -0.77176,0.96981 -0.64534,1.42767 0.12347,0.44715 0.5877,0.55763 1.09472,0.2605 0.60731,-0.35591 0.90487,-1.33802 0.52154,-1.72135 -0.23154,-0.23154 -0.58975,-0.2193 -0.97092,0.0331 z"
       id="path1007"
       inkscape:connector-curvature="0" /><path
       style="opacity:1;fill:#8fbcbb;fill-opacity:1;stroke:#8fbcbb;stroke-width:0.39723781;stroke-miterlimit:4;stroke-dasharray:none;stroke-dashoffset:0;stroke-opacity:1"
       d="m 223.77184,235.13891 c -0.57335,0.26137 -1.02619,0.86096 -1.02619,1.35873 0,0.28591 0.25357,0.6042 0.5245,0.65839 0.49398,0.0988 1.25563,-0.35352 1.52207,-0.90391 0.41215,-0.85137 -0.1793,-1.49662 -1.02038,-1.11321 z"
       id="path1009"
       inkscape:connector-curvature="0" /><path
       style="opacity:1;fill:#8fbcbb;fill-opacity:1;stroke:#8fbcbb;stroke-width:0.39723781;stroke-miterlimit:4;stroke-dasharray:none;stroke-dashoffset:0;stroke-opacity:1"
       d="m 227.99755,232.77313 c -0.66579,0.11736 -1.21332,0.60255 -1.21332,1.07517 0,0.3708 0.49115,0.70222 1.04204,0.70317 0.5512,7.5e-4 1.26375,-0.45757 1.41277,-0.90909 0.18849,-0.57116 -0.43921,-1.01066 -1.24149,-0.86925 z"
       id="path1011"
       inkscape:connector-curvature="0" /><path
       style="opacity:1;fill:#8fbcbb;fill-opacity:1;stroke:#8fbcbb;stroke-width:0.39723781;stroke-miterlimit:4;stroke-dasharray:none;stroke-dashoffset:0;stroke-opacity:1"
       d="m 232.24105,232.15806 c -0.57454,0.26836 -0.71964,0.74803 -0.35271,1.16594 0.2149,0.24476 0.68772,0.43337 1.0864,0.43337 0.57087,0 1.22489,-0.45216 1.22435,-0.84644 -3.7e-4,-0.26763 -0.216,-0.5716 -0.50504,-0.71195 -0.37429,-0.18175 -1.1073,-0.20239 -1.453,-0.041 z"
       id="path1013"
       inkscape:connector-curvature="0" /><path
       style="opacity:1;fill:#8fbcbb;fill-opacity:1;stroke:#8fbcbb;stroke-width:0.39723781;stroke-miterlimit:4;stroke-dasharray:none;stroke-dashoffset:0;stroke-opacity:1"
       d="m 236.81449,232.68596 c -0.36706,0.17438 -0.50979,0.3551 -0.50979,0.64549 0,1.01467 2.04044,1.40102 2.43332,0.46073 0.10893,-0.2607 0.0497,-0.4952 -0.19003,-0.75298 -0.38746,-0.41655 -1.23619,-0.5895 -1.7335,-0.35324 z"
       id="path1015"
       inkscape:connector-curvature="0" /><circle
       style="opacity:1;fill:none;fill-opacity:1;stroke:#8fbcbb;stroke-width:2.54999995;stroke-miterlimit:4;stroke-dasharray:none;stroke-dashoffset:0;stroke-opacity:1"
       id="path1017"
       cx="254.57957"
       cy="-270.49664"
       r="68.53138"
       transform="scale(1,-1)" /><ellipse
       style="opacity:1;fill:#8fbcbb;fill-opacity:1;stroke:#8fbcbb;stroke-width:4.5;stroke-miterlimit:4;stroke-dasharray:none;stroke-dashoffset:0;stroke-opacity:1"
       id="path1019"
       cx="291.00159"
       cy="-234.16826"
       transform="scale(1,-1)"
       rx="9.1757259"
       ry="0.093629852" /><path
       style="opacity:1;fill:#ffffff;fill-opacity:1;stroke:#8fbcbb;stroke-width:0.84891069;stroke-miterlimit:4;stroke-dasharray:none;stroke-dashoffset:0;stroke-opacity:1"
       d="m 333.41063,395.36248 c -21.12054,-1.40314 -41.04323,-10.29039 -56.31141,-25.11976 -15.12366,-14.689 -24.21512,-33.25568 -26.75103,-54.63124 -0.4297,-3.62201 -0.4297,-15.60332 0,-19.22533 2.54501,-21.45232 11.70617,-40.10783 26.91292,-54.80467 19.30185,-18.65464 45.53705,-27.57868 72.25385,-24.57754 39.1851,4.40173 70.89612,33.9971 78.00934,72.80482 1.88476,10.28277 1.88476,22.09734 0,32.3801 -5.02244,27.40105 -22.621,50.97434 -47.54843,63.69121 -14.16162,7.22463 -30.49249,10.5502 -46.56524,9.48241 z m -16.53188,-12.68499 c 0.50954,-0.25978 1.50278,-0.90583 2.20721,-1.43566 l 1.28077,-0.96334 -0.14344,-8.84314 c -0.17663,-10.88978 0.21922,-9.99389 -4.22242,-9.55633 -12.65971,1.24716 -18.8088,-1.34192 -23.15424,-9.74909 -2.75829,-5.33648 -5.80787,-9.12977 -10.21966,-12.71199 -1.42775,-1.15928 -1.22323,-1.57023 0.69473,-1.39591 0.77077,0.0701 1.85778,0.26424 2.41557,0.43154 0.91651,0.27488 1.00424,0.3717 0.91121,1.00557 -0.0798,0.5435 0.0428,0.7969 0.54452,1.12563 0.66316,0.43452 1.8995,0.3467 1.8995,-0.13493 0,-0.38575 0.37565,-0.28926 1.10387,0.28356 0.66759,0.52513 0.6686,0.53075 0.15851,0.88803 -0.97985,0.68631 -0.41323,2.36136 0.91121,2.69377 0.53548,0.1344 0.78478,0.0519 1.12938,-0.37365 l 0.44222,-0.54612 0.50357,0.58944 c 0.9525,1.11492 1.04268,1.41438 0.47974,1.59305 -0.72887,0.23134 -1.07241,1.10149 -0.75964,1.92415 0.52345,1.37676 2.36074,1.85215 2.91917,0.75531 0.20087,-0.39453 0.35761,-0.30651 1.32426,0.74361 1.07648,1.16944 1.08459,1.19111 0.44573,1.19111 -1.69215,0 -1.2575,2.58956 0.55068,3.28085 0.83487,0.31918 1.52223,0.0346 1.86169,-0.77073 l 0.29003,-0.68805 1.437,0.79604 c 1.41719,0.78506 1.42837,0.79996 0.81146,1.08105 -1.01245,0.4613 -0.7945,1.81416 0.39103,2.42723 0.92057,0.47604 1.72961,0.46255 2.44828,-0.0408 0.46439,-0.32527 0.54994,-0.55544 0.42977,-1.15628 -0.14924,-0.74622 -0.14512,-0.74935 0.78657,-0.59535 0.51513,0.0851 1.4422,0.16365 2.06016,0.17445 0.99899,0.0175 1.06067,0.05 0.55635,0.29301 -1.49378,0.71991 -0.65177,2.55281 1.17272,2.55281 1.7095,0 2.70126,-1.60272 1.50866,-2.43805 -0.47382,-0.33187 -0.42184,-0.36679 0.78405,-0.52676 0.71033,-0.0942 1.64041,-0.2411 2.06684,-0.32639 0.73766,-0.14753 0.75416,-0.13389 0.33951,0.28076 -1.08521,1.08521 0.003,2.60495 1.64542,2.29692 0.45928,-0.0862 1.09627,-0.43471 1.41554,-0.77456 0.50055,-0.53281 0.54082,-0.705 0.29237,-1.25027 -0.18637,-0.40904 -0.56588,-0.68791 -1.07465,-0.78966 l -0.78654,-0.15731 1.24137,-0.46307 c 0.68275,-0.25469 1.46866,-0.71503 1.74646,-1.02298 0.27779,-0.30795 0.98883,-1.9967 1.58008,-3.75278 0.91276,-2.71099 1.37038,-3.63001 3.03219,-6.08935 1.07646,-1.59307 1.9572,-2.92253 1.9572,-2.95435 0,-0.0318 -1.264,-0.19235 -2.8089,-0.35672 -6.14646,-0.65395 -12.46552,-2.38884 -17.29031,-4.74702 -7.33171,-3.58347 -12.70733,-10.07385 -15.10139,-18.23299 -1.3025,-4.43901 -1.78836,-7.65823 -1.93471,-12.81904 -0.14797,-5.21757 0.11804,-7.99811 1.08583,-11.35015 1.00006,-3.46377 3.48014,-7.99762 5.96737,-10.90894 l 1.09833,-1.28562 -0.65401,-2.23245 c -0.60078,-2.05075 -0.65525,-2.61858 -0.66922,-6.97637 -0.0156,-4.86384 0.25535,-7.28278 1.08852,-9.71803 l 0.43377,-1.26787 2.47016,0.0229 c 1.99567,0.0185 2.85268,0.15367 4.46156,0.70378 2.86709,0.98032 8.58524,3.835 11.52318,5.75273 l 2.52869,1.65059 2.71459,-0.65025 c 11.22204,-2.68813 20.71517,-2.78747 34.1683,-0.35756 l 4.21715,0.7617 3.30426,-2.01344 c 3.94483,-2.40376 6.6122,-3.68446 10.11505,-4.85659 2.54502,-0.85162 6.88559,-1.56554 7.25744,-1.19368 0.30779,0.30778 1.40696,4.78663 1.72459,7.02724 0.37389,2.63753 0.17141,6.59314 -0.50301,9.82676 -0.62265,2.98534 -0.51389,3.41496 1.67272,6.60749 3.98421,5.8171 5.26046,9.91262 5.47722,17.57659 0.35902,12.69351 -2.82331,22.19449 -9.62208,28.72715 -5.19873,4.99524 -11.45484,7.77478 -21.23863,9.43613 -1.70179,0.28897 -3.4016,0.68439 -3.77736,0.8787 -1.32327,0.6843 -1.32193,1.75431 0.005,3.64538 0.54888,0.78249 1.49607,2.47271 2.10486,3.75604 l 1.10688,2.33333 0.27841,13.85722 c 0.28895,14.38183 0.40308,16.10283 1.17016,17.64588 0.72536,1.4591 1.57691,1.93138 3.67327,2.03724 1.55959,0.0788 2.18522,-0.0319 4.43354,-0.78425 7.16913,-2.39894 16.22358,-7.40906 22.68813,-12.55407 2.97617,-2.36868 11.20822,-10.67779 13.83056,-13.96003 8.10503,-10.14461 13.60115,-22.29042 16.10005,-35.57934 1.40232,-7.45737 1.56745,-19.14137 0.38464,-27.21508 -1.98086,-13.5211 -8.0375,-27.36408 -16.8231,-38.45064 -2.67098,-3.37051 -9.62267,-10.32215 -12.99278,-12.99268 -16.26595,-12.88942 -37.04756,-19.33433 -57.10061,-17.70837 -16.58689,1.34491 -32.01149,7.45099 -45.26707,17.9197 -5.02821,3.97107 -11.86732,11.45076 -16.34667,17.87778 -9.08806,13.03963 -14.10442,29.3339 -14.11177,45.8382 -0.0144,32.34756 19.31964,61.78227 49.26968,75.00958 4.10399,1.81251 7.25903,2.8788 8.53734,2.88532 0.5546,0.003 1.42525,-0.20741 1.93479,-0.46718 z"
       id="path1021"
       inkscape:connector-curvature="0"
       transform="matrix(0.75000002,0,0,-0.75000002,0,499.99001)" /></g></svg>