<?xml version="1.0" encoding="UTF-8" standalone="no"?>
<!-- Created with Inkscape (http://www.inkscape.org/) -->

<svg
   xmlns:dc="http://purl.org/dc/elements/1.1/"
   xmlns:cc="http://creativecommons.org/ns#"
   xmlns:rdf="http://www.w3.org/1999/02/22-rdf-syntax-ns#"
   xmlns:svg="http://www.w3.org/2000/svg"
   xmlns="http://www.w3.org/2000/svg"
   xmlns:sodipodi="http://sodipodi.sourceforge.net/DTD/sodipodi-0.dtd"
   xmlns:inkscape="http://www.inkscape.org/namespaces/inkscape"
   version="1.1"
   id="svg2"
   xml:space="preserve"
   width="72.171768"
   height="72.172661"
   viewBox="0 0 72.171768 72.172661"
   sodipodi:docname="linkedin.svg"
   inkscape:version="0.92.4 5da689c313, 2019-01-14"><metadata
     id="metadata8"><rdf:RDF><cc:Work
         rdf:about=""><dc:format>image/svg+xml</dc:format><dc:type
           rdf:resource="http://purl.org/dc/dcmitype/StillImage" /><dc:title></dc:title></cc:Work></rdf:RDF></metadata><defs
     id="defs6" /><sodipodi:namedview
     pagecolor="#ffffff"
     bordercolor="#666666"
     borderopacity="1"
     objecttolerance="10"
     gridtolerance="10"
     guidetolerance="10"
     inkscape:pageopacity="0"
     inkscape:pageshadow="2"
     inkscape:window-width="1920"
     inkscape:window-height="1058"
     id="namedview4"
     showgrid="false"
     fit-margin-top="0"
     fit-margin-left="0"
     fit-margin-right="0"
     fit-margin-bottom="0"
     inkscape:zoom="9.2709556"
     inkscape:cx="55.865411"
     inkscape:cy="35.232757"
     inkscape:window-x="0"
     inkscape:window-y="22"
     inkscape:window-maximized="0"
     inkscape:current-layer="g10" /><g
     id="g10"
     inkscape:groupmode="layer"
     inkscape:label="ink_ext_XXXXXX"
     transform="matrix(1.3333333,0,0,-1.3333333,1.2895874,75.097176)"><g
       id="g12"
       transform="matrix(0.1,0,0,0.1,-0.88987594,2.2651388)"><path
         d="M 460.156,79.8633 H 380.098 V 205.188 c 0,29.89 -0.528,68.328 -41.621,68.328 -41.68,0 -48.039,-32.578 -48.039,-66.18 V 79.8633 H 210.383 V 337.563 h 76.812 v -35.239 h 1.106 c 10.691,20.27 36.816,41.621 75.781,41.621 81.106,0 96.074,-53.355 96.074,-122.746 z M 120.09,372.77 c -25.6681,0 -46.4181,20.808 -46.4181,46.433 0,25.652 20.75,46.461 46.4181,46.461 25.601,0 46.414,-20.809 46.414,-46.461 0,-25.625 -20.813,-46.433 -46.414,-46.433 z M 160.145,79.8633 H 80.0313 V 337.563 H 160.145 Z M 500.039,540 H 39.8516 C 17.8711,540 0,522.563 0,501.059 V 38.9648 C 0,17.4609 17.8711,0 39.8516,0 H 500.039 C 522.07,0 539.98,17.4609 539.98,38.9648 V 501.059 c 0,21.504 -17.91,38.941 -39.941,38.941"
         style="fill:#231f20;fill-opacity:1;fill-rule:nonzero;stroke:none"
         id="path18"
         inkscape:connector-curvature="0" /></g><path
       style="opacity:1;fill:#ffffff;fill-opacity:1;stroke:#8fbcbb;stroke-width:0.25932205;stroke-miterlimit:4;stroke-dasharray:none;stroke-dashoffset:0;stroke-opacity:1"
       d="M 3.2087204,68.865832 C 2.1558156,68.689847 1.1840371,68.171367 0.34907258,67.340103 -0.11533589,66.877752 -0.30447607,66.615834 -0.58725205,66.043493 -1.2239578,64.754795 -1.1707459,67.918908 -1.1482994,32.682203 L -1.1282819,1.2584745 -0.90461938,0.61770489 C -0.44045547,-0.71207592 0.50296533,-1.7848614 1.7493403,-2.4001734 3.0282895,-3.0315668 -0.18027706,-2.9779927 35.041057,-2.9560524 l 31.483204,0.019612 0.610169,0.2077941 c 0.839601,0.2859273 1.497785,0.6909737 2.106091,1.2960887 0.574529,0.57151604 0.943064,1.14914977 1.263511,1.98040075 l 0.215144,0.55808935 0.02101,31.6144065 c 0.0235,35.363996 0.07544,32.124944 -0.534758,33.352389 -0.242427,0.487655 -0.456561,0.771775 -0.96663,1.282557 -0.548293,0.54906 -0.773459,0.713627 -1.379793,1.008451 -1.321277,0.642457 1.889482,0.5865 -33.079411,0.5765 C 17.63111,68.935332 3.4242166,68.90185 3.2087204,68.865832 Z M 20.189515,41.148305 V 23.949153 H 14.812396 9.4352774 v 17.199152 17.199153 h 5.3771186 5.377119 z m 17.409427,7.53178 c 0.02805,-10.578966 0.01589,-10.280403 0.484795,-11.903805 0.810984,-2.807735 2.726604,-4.204089 5.772129,-4.207481 1.766293,-0.002 2.90949,0.411781 3.837419,1.388849 0.846693,0.89153 1.333059,2.072497 1.606538,3.900911 0.1121,0.749471 0.130525,2.000964 0.157077,10.668983 l 0.03008,9.819916 h 5.372453 5.372454 l -10e-4,-9.591102 c -5.48e-4,-5.275106 -0.0353,-10.363348 -0.07718,-11.307203 -0.176129,-3.969283 -0.702867,-6.521747 -1.798588,-8.715584 -1.936804,-3.877842 -5.734155,-5.756263 -11.329641,-5.604391 -2.100331,0.05701 -3.60759,0.414946 -5.282403,1.254452 -1.767758,0.886095 -3.455235,2.399408 -4.257003,3.817641 -0.124504,0.220233 -0.257416,0.400424 -0.295361,0.400424 -0.03963,0 -0.06899,-0.989936 -0.06899,-2.326271 v -2.326271 h -5.148305 -5.148305 v 17.199152 17.199153 h 5.3741 5.3741 z M 16.515427,19.072882 c 2.105696,-0.608345 3.755304,-2.291937 4.339419,-4.428814 0.187802,-0.687043 0.186896,-2.429067 -0.0016,-3.127119 C 20.266052,9.3428176 18.569979,7.649476 16.375955,7.0468955 15.699402,6.8610829 14.009628,6.8518853 13.363244,7.0304972 11.225128,7.6213121 9.6419052,9.0542479 8.9703519,11.006397 c -1.2285595,3.571319 0.8803892,7.361821 4.5454341,8.1697 0.75074,0.165484 2.247894,0.113969 2.999641,-0.103215 z"
       id="path834"
       inkscape:connector-curvature="0"
       transform="matrix(0.75000002,0,0,-0.75000002,0,54.000001)" /><path
       style="opacity:1;fill:#8fbcbb;fill-opacity:1;stroke:#8fbcbb;stroke-width:0.25932205;stroke-miterlimit:4;stroke-dasharray:none;stroke-dashoffset:0;stroke-opacity:1"
       d="M 3.2087204,68.865832 C 2.1558156,68.689847 1.1840371,68.171367 0.34907258,67.340103 -0.11533589,66.877752 -0.30447607,66.615834 -0.58725205,66.043493 -1.2239578,64.754795 -1.1707459,67.918908 -1.1482994,32.682203 L -1.1282819,1.2584745 -0.90461938,0.61770489 C -0.44045547,-0.71207592 0.50296533,-1.7848614 1.7493403,-2.4001734 3.0282895,-3.0315668 -0.18027706,-2.9779927 35.041057,-2.9560524 l 31.483204,0.019612 0.610169,0.2077941 c 0.839601,0.2859273 1.497785,0.6909737 2.106091,1.2960887 0.574529,0.57151604 0.943064,1.14914977 1.263511,1.98040075 l 0.215144,0.55808935 0.02101,31.6144065 c 0.0235,35.363996 0.07544,32.124944 -0.534758,33.352389 -0.242427,0.487655 -0.456561,0.771775 -0.96663,1.282557 -0.548293,0.54906 -0.773459,0.713627 -1.379793,1.008451 -1.321277,0.642457 1.889482,0.5865 -33.079411,0.5765 C 17.63111,68.935332 3.4242166,68.90185 3.2087204,68.865832 Z M 20.189515,41.148305 V 23.949153 H 14.812396 9.4352774 v 17.199152 17.199153 h 5.3771186 5.377119 z m 17.409427,7.53178 c 0.02805,-10.578966 0.01589,-10.280403 0.484795,-11.903805 0.810984,-2.807735 2.726604,-4.204089 5.772129,-4.207481 1.766293,-0.002 2.90949,0.411781 3.837419,1.388849 0.846693,0.89153 1.333059,2.072497 1.606538,3.900911 0.1121,0.749471 0.130525,2.000964 0.157077,10.668983 l 0.03008,9.819916 h 5.372453 5.372454 l -10e-4,-9.591102 c -5.48e-4,-5.275106 -0.0353,-10.363348 -0.07718,-11.307203 -0.176129,-3.969283 -0.702867,-6.521747 -1.798588,-8.715584 -1.936804,-3.877842 -5.734155,-5.756263 -11.329641,-5.604391 -2.100331,0.05701 -3.60759,0.414946 -5.282403,1.254452 -1.767758,0.886095 -3.455235,2.399408 -4.257003,3.817641 -0.124504,0.220233 -0.257416,0.400424 -0.295361,0.400424 -0.03963,0 -0.06899,-0.989936 -0.06899,-2.326271 v -2.326271 h -5.148305 -5.148305 v 17.199152 17.199153 h 5.3741 5.3741 z M 16.515427,19.072882 c 2.105696,-0.608345 3.755304,-2.291937 4.339419,-4.428814 0.187802,-0.687043 0.186896,-2.429067 -0.0016,-3.127119 C 20.266052,9.3428176 18.569979,7.649476 16.375955,7.0468955 15.699402,6.8610829 14.009628,6.8518853 13.363244,7.0304972 11.225128,7.6213121 9.6419052,9.0542479 8.9703519,11.006397 c -1.2285595,3.571319 0.8803892,7.361821 4.5454341,8.1697 0.75074,0.165484 2.247894,0.113969 2.999641,-0.103215 z"
       id="path836"
       inkscape:connector-curvature="0"
       transform="matrix(0.75000002,0,0,-0.75000002,0,54.000001)" /><path
       style="opacity:1;fill:#ffffff;fill-opacity:1;stroke:#8fbcbb;stroke-width:0.36673674;stroke-miterlimit:4;stroke-dasharray:none;stroke-dashoffset:0;stroke-opacity:1"
       d="M 10.886229,44.274638 V 27.232166 h 5.231391 5.231392 V 44.274638 61.31711 H 16.11762 10.886229 Z"
       id="path876"
       inkscape:connector-curvature="0"
       transform="matrix(0.75000002,0,0,-0.75000002,-0.96719057,56.322883)" /><path
       style="opacity:1;fill:#ffffff;fill-opacity:1;stroke:#8fbcbb;stroke-width:0.36673674;stroke-miterlimit:4;stroke-dasharray:none;stroke-dashoffset:0;stroke-opacity:1"
       d="M 28.252292,44.274638 V 27.232166 h 5.015664 5.015664 v 2.148453 c 0,2.833483 0.03204,2.908871 0.771517,1.81554 1.544654,-2.28379 4.037682,-3.925688 6.88537,-4.534677 1.383255,-0.295815 4.407722,-0.310721 5.982838,-0.02949 4.672107,0.834195 7.501911,3.555209 8.638003,8.305918 0.660671,2.762676 0.792088,5.745232 0.799922,18.154587 l 0.0052,8.22461 h -5.2314 -5.231392 l -0.0017,-9.249316 c -9.71e-4,-5.087124 -0.04857,-9.807511 -0.10585,-10.489749 -0.18201,-2.16791 -0.751222,-3.677307 -1.771528,-4.697613 -0.998609,-0.998605 -1.996041,-1.342757 -3.891628,-1.342757 -3.149909,0 -5.001494,1.347154 -5.930096,4.31455 -0.427024,1.364574 -0.482888,2.826063 -0.485489,12.700956 l -0.0023,8.763929 h -5.231392 -5.231391 z"
       id="path878"
       inkscape:connector-curvature="0"
       transform="matrix(0.75000002,0,0,-0.75000002,-0.96719057,56.322883)" /><path
       style="opacity:1;fill:#ffffff;fill-opacity:1;stroke:#8fbcbb;stroke-width:0.36673674;stroke-miterlimit:4;stroke-dasharray:none;stroke-dashoffset:0;stroke-opacity:1"
       d="m 14.337868,21.96539 c -2.597516,-0.867044 -4.206686,-3.08159 -4.206686,-5.789258 0,-3.385492 2.605333,-5.992895 5.97905,-5.983801 1.832809,0.0049 2.895274,0.451831 4.217316,1.773873 1.393587,1.393588 1.861372,2.645921 1.749138,4.682724 -0.04148,0.752722 -0.1284,1.219851 -0.304865,1.638365 -0.700745,1.661926 -1.887295,2.865065 -3.47839,3.527024 -0.907188,0.377425 -3.034092,0.458657 -3.955563,0.151073 z"
       id="path880"
       inkscape:connector-curvature="0"
       transform="matrix(0.75000002,0,0,-0.75000002,-0.96719057,56.322883)" /></g></svg>