<?xml version="1.0" encoding="UTF-8" standalone="no"?>
<!-- Created with Inkscape (http://www.inkscape.org/) -->

<svg
   xmlns:dc="http://purl.org/dc/elements/1.1/"
   xmlns:cc="http://creativecommons.org/ns#"
   xmlns:rdf="http://www.w3.org/1999/02/22-rdf-syntax-ns#"
   xmlns:svg="http://www.w3.org/2000/svg"
   xmlns="http://www.w3.org/2000/svg"
   xmlns:sodipodi="http://sodipodi.sourceforge.net/DTD/sodipodi-0.dtd"
   xmlns:inkscape="http://www.inkscape.org/namespaces/inkscape"
   width="153.86913mm"
   height="80.637276mm"
   viewBox="0 0 153.86913 80.637276"
   version="1.1"
   id="svg1409"
   inkscape:version="0.92.4 5da689c313, 2019-01-14"
   sodipodi:docname="mail.svg">
  <defs
     id="defs1403" />
  <sodipodi:namedview
     id="base"
     pagecolor="#ffffff"
     bordercolor="#666666"
     borderopacity="1.0"
     inkscape:pageopacity="0.0"
     inkscape:pageshadow="2"
     inkscape:zoom="0.98994949"
     inkscape:cx="337.87157"
     inkscape:cy="175.4893"
     inkscape:document-units="mm"
     inkscape:current-layer="layer1"
     showgrid="false"
     inkscape:window-width="1920"
     inkscape:window-height="1058"
     inkscape:window-x="0"
     inkscape:window-y="22"
     inkscape:window-maximized="0"
     fit-margin-top="0"
     fit-margin-left="0"
     fit-margin-right="0"
     fit-margin-bottom="0" />
  <metadata
     id="metadata1406">
    <rdf:RDF>
      <cc:Work
         rdf:about="">
        <dc:format>image/svg+xml</dc:format>
        <dc:type
           rdf:resource="http://purl.org/dc/dcmitype/StillImage" />
        <dc:title></dc:title>
      </cc:Work>
    </rdf:RDF>
  </metadata>
  <g
     inkscape:label="Layer 1"
     inkscape:groupmode="layer"
     id="layer1"
     transform="translate(-30.908691,-114.6276)">
    <rect
       style="opacity:1;fill:#ffffff;fill-opacity:1;stroke:#8fbcbb;stroke-width:5;stroke-miterlimit:4;stroke-dasharray:none;stroke-dashoffset:0;stroke-opacity:1"
       id="rect1954"
       width="148.86913"
       height="75.637276"
       x="33.408691"
       y="117.1276"
       rx="7.9999948"
       ry="7.9999948" />
    <path
       style="fill:none;stroke:#8fbcbb;stroke-width:4.96650505;stroke-linecap:butt;stroke-linejoin:miter;stroke-miterlimit:4;stroke-dasharray:none;stroke-opacity:1"
       d="m 33.500579,119.96004 73.803191,36.37064 v 0 l 74.06866,-36.37064"
       id="path1956"
       inkscape:connector-curvature="0" />
    <path
       style="fill:none;stroke:#8fbcbb;stroke-width:5;stroke-linecap:butt;stroke-linejoin:miter;stroke-miterlimit:4;stroke-dasharray:none;stroke-opacity:1"
       d="m 34.996192,191.17737 55.057521,-43.8322"
       id="path1958"
       inkscape:connector-curvature="0" />
    <path
       style="fill:none;stroke:#8fbcbb;stroke-width:5;stroke-linecap:butt;stroke-linejoin:miter;stroke-miterlimit:4;stroke-dasharray:none;stroke-opacity:1"
       d="m 179.33785,191.11295 -55.05752,-43.8322"
       id="path1958-0"
       inkscape:connector-curvature="0" />
    <path
       style="opacity:1;fill:#ffffff;fill-opacity:1;stroke:#8fbcbb;stroke-width:19.08949661;stroke-miterlimit:4;stroke-dasharray:none;stroke-dashoffset:0;stroke-opacity:1"
       d="m 20.251496,271.03368 c -0.689417,-1.7966 -0.79055,-234.686208 -0.101913,-234.686208 0.602178,0 182.441907,89.647228 183.027467,90.232778 0.23802,0.23802 -40.69282,33.17632 -90.9574,73.1962 -65.952998,52.51074 -91.551045,72.34419 -91.968154,71.25723 z"
       id="path1996"
       inkscape:connector-curvature="0"
       transform="matrix(0.26458333,0,0,0.26458333,30.908691,114.6276)" />
    <path
       style="opacity:1;fill:#ffffff;fill-opacity:1;stroke:#8fbcbb;stroke-width:19.08949661;stroke-miterlimit:4;stroke-dasharray:none;stroke-dashoffset:0;stroke-opacity:1"
       d="m 37.856259,284.95427 c 0,-0.49549 41.024821,-33.52734 91.166271,-73.40412 50.14144,-39.87677 91.8869,-73.11214 92.76766,-73.85639 1.37975,-1.16589 6.06346,0.83797 33.84011,14.47803 17.7313,8.70717 32.69328,15.81567 33.24887,15.79668 0.55558,-0.019 15.38764,-7.08054 32.96014,-15.69234 l 31.94999,-15.65781 48.86222,38.90363 c 26.87421,21.39699 69.04326,54.97528 93.70898,74.61841 l 44.84676,35.71479 H 289.53177 c -146.76073,0 -251.675511,-0.37554 -251.675511,-0.90088 z"
       id="path1998"
       inkscape:connector-curvature="0"
       transform="matrix(0.26458333,0,0,0.26458333,30.908691,114.6276)" />
    <path
       style="opacity:1;fill:#ffffff;fill-opacity:1;stroke:#8fbcbb;stroke-width:19.08949661;stroke-miterlimit:4;stroke-dasharray:none;stroke-dashoffset:0;stroke-opacity:1"
       d="M 160.38744,83.548296 C 73.545824,40.728725 33.453408,20.47122 34.623444,20.003492 36.98581,19.059122 545.97315,18.988444 545.92167,19.932493 545.87996,20.697637 291.52814,145.75361 289.15098,146.17775 288.44589,146.30356 230.5023,118.1203 160.38744,83.548296 Z"
       id="path2000"
       inkscape:connector-curvature="0"
       transform="matrix(0.26458333,0,0,0.26458333,30.908691,114.6276)" />
    <path
       style="opacity:1;fill:#ffffff;fill-opacity:1;stroke:#8fbcbb;stroke-width:19.08949661;stroke-miterlimit:4;stroke-dasharray:none;stroke-dashoffset:0;stroke-opacity:1"
       d="m 465.90834,200.85913 -92.68156,-73.82786 94.19679,-46.269352 94.19678,-46.269347 0.29508,116.337379 c 0.28498,112.36018 0.0401,123.98961 -2.60847,123.88528 -0.39438,-0.0156 -42.42377,-33.25079 -93.39862,-73.8561 z"
       id="path2002"
       inkscape:connector-curvature="0"
       transform="matrix(0.26458333,0,0,0.26458333,30.908691,114.6276)" />
  </g>
</svg>
