<?xml version="1.0" encoding="UTF-8" standalone="no"?>
<!-- Created with Inkscape (http://www.inkscape.org/) -->

<svg
   xmlns:dc="http://purl.org/dc/elements/1.1/"
   xmlns:cc="http://creativecommons.org/ns#"
   xmlns:rdf="http://www.w3.org/1999/02/22-rdf-syntax-ns#"
   xmlns:svg="http://www.w3.org/2000/svg"
   xmlns="http://www.w3.org/2000/svg"
   xmlns:sodipodi="http://sodipodi.sourceforge.net/DTD/sodipodi-0.dtd"
   xmlns:inkscape="http://www.inkscape.org/namespaces/inkscape"
   width="84.722237mm"
   height="112.97688mm"
   viewBox="0 0 84.722237 112.97688"
   version="1.1"
   id="svg8"
   inkscape:version="0.92.4 5da689c313, 2019-01-14"
   sodipodi:docname="pdf.svg">
  <defs
     id="defs2" />
  <sodipodi:namedview
     id="base"
     pagecolor="#ffffff"
     bordercolor="#666666"
     borderopacity="1.0"
     inkscape:pageopacity="0.0"
     inkscape:pageshadow="2"
     inkscape:zoom="1"
     inkscape:cx="-24.440943"
     inkscape:cy="87.754354"
     inkscape:document-units="mm"
     inkscape:current-layer="layer1"
     showgrid="false"
     inkscape:window-width="1920"
     inkscape:window-height="1058"
     inkscape:window-x="0"
     inkscape:window-y="22"
     inkscape:window-maximized="0"
     fit-margin-top="0"
     fit-margin-left="0"
     fit-margin-right="0"
     fit-margin-bottom="0" />
  <metadata
     id="metadata5">
    <rdf:RDF>
      <cc:Work
         rdf:about="">
        <dc:format>image/svg+xml</dc:format>
        <dc:type
           rdf:resource="http://purl.org/dc/dcmitype/StillImage" />
        <dc:title></dc:title>
      </cc:Work>
    </rdf:RDF>
  </metadata>
  <g
     inkscape:label="Layer 1"
     inkscape:groupmode="layer"
     id="layer1"
     transform="translate(-20.960417,-59.035545)">
    <path
       style="fill:none;stroke:#8fbcbb;stroke-width:5;stroke-linecap:butt;stroke-linejoin:miter;stroke-miterlimit:4;stroke-dasharray:none;stroke-opacity:1"
       d="m 37.685003,69.553631 v 93.009789 c 0,0 -0.801809,6.94901 7.216278,6.94901 h 51.048477 c 0,0 7.232892,-3.00646 7.232892,-7.11587 V 76.50264 L 87.397133,61.535545 H 44.09947 c 0,0 -6.414467,1.069078 -6.414467,8.018086 z"
       id="path817"
       inkscape:connector-curvature="0"
       sodipodi:nodetypes="scscscccs" />
    <path
       style="fill:#8fbcbb;fill-opacity:1;stroke:#8fbcbb;stroke-width:2;stroke-linecap:butt;stroke-linejoin:miter;stroke-miterlimit:4;stroke-dasharray:none;stroke-opacity:1"
       d="m 87.397131,61.535545 v 9.621702 c 0,0 0.267272,5.612662 5.612662,5.612662 5.345393,0 10.172857,-0.267269 10.172857,-0.267269 z"
       id="path819"
       inkscape:connector-curvature="0" />
    <rect
       style="opacity:1;fill:#8fbcbb;fill-opacity:1;stroke:#8fbcbb;stroke-width:2;stroke-miterlimit:4;stroke-dasharray:none;stroke-dashoffset:0;stroke-opacity:1"
       id="rect840"
       width="58.737499"
       height="33.072918"
       x="21.960417"
       y="111.26247"
       rx="7.9999948"
       ry="7.9999948" />
    <text
       xml:space="preserve"
       style="font-style:normal;font-weight:normal;font-size:4.58611107px;line-height:1.25;font-family:sans-serif;letter-spacing:0px;word-spacing:0px;fill:#000000;fill-opacity:1;stroke:none;stroke-width:0.26458332"
       x="30.427082"
       y="134.81059"
       id="text844"><tspan
         sodipodi:role="line"
         id="tspan842"
         x="30.427082"
         y="134.81059"
         style="font-style:normal;font-variant:normal;font-weight:bold;font-stretch:normal;font-size:21.16666985px;font-family:Arial;-inkscape-font-specification:'Arial Bold';fill:#ffffff;fill-opacity:1;stroke-width:0.26458332">PDF</tspan></text>
    <path
       style="opacity:1;fill:#ffffff;fill-opacity:1;stroke:#8fbcbb;stroke-width:7.55905533;stroke-miterlimit:4;stroke-dasharray:none;stroke-dashoffset:0;stroke-opacity:1"
       d="m 162.57827,629.96542 c -4.55708,-1.3828 -6.89039,-3.05206 -8.43125,-6.03175 -1.26404,-2.44438 -1.51035,-8.71824 -1.51035,-38.47036 v -35.54966 h 62.2899 c 69.33379,0 69.77866,-0.0369 79.36137,-6.58668 5.58982,-3.82063 8.98244,-8.12628 12.53884,-15.91332 2.21029,-4.83961 2.29483,-6.09626 2.63546,-39.17444 0.38142,-37.0401 -0.28826,-45.39168 -4.26189,-53.14927 -2.87727,-5.61721 -9.53408,-12.20282 -15.19291,-15.03043 -7.4838,-3.73949 -14.7703,-4.13049 -77.12077,-4.13831 l -60.25,-0.008 v -79.4349 c 0,-53.69296 0.34468,-80.34717 1.06362,-82.25 1.30298,-3.44863 5.51102,-8.01022 9.13672,-9.90438 2.25922,-1.18027 15.85863,-1.41072 83.25,-1.41072 h 80.54966 v 15.91263 15.91263 l 3.26251,6.30232 c 2.53782,4.9024 4.35199,6.97651 8.16719,9.33738 l 4.90467,3.03504 18.83281,0.31061 18.83282,0.31061 v 159.70499 c 0,184.02556 1.38081,163.19594 -11.39697,171.92379 l -7.68612,5.25 -98.20846,-0.086 c -54.01464,-0.0473 -99.35973,-0.4353 -100.76685,-0.86228 z"
       id="path850"
       inkscape:connector-curvature="0"
       transform="scale(0.26458333)" />
  </g>
</svg>
